<svg width="192" height="192" viewBox="0 0 192 192" fill="none" xmlns="http://www.w3.org/2000/svg">
  <rect width="192" height="192" rx="48" fill="url(#paint0_linear)"/>
  <rect x="22" y="22" width="148" height="148" rx="34" fill="white" fill-opacity="0.12" stroke="white" stroke-opacity="0.18" stroke-width="2"/>
  <path d="M59 116V72H85.4C97.95 72 106 78.95 106 89.8C106 100.8 97.95 108.2 85.4 108.2H71.6V116H59ZM71.6 98.1H83.8C89.85 98.1 93.1 95.15 93.1 89.9C93.1 84.75 89.85 81.9 83.8 81.9H71.6V98.1Z" fill="white"/>
  <path d="M109.2 116V72H122.2V104.9H148.2V116H109.2Z" fill="white"/>
  <path d="M58 133H134" stroke="#FF9A24" stroke-width="7" stroke-linecap="round"/>
  <defs>
    <linearGradient id="paint0_linear" x1="26" y1="15" x2="165" y2="180" gradientUnits="userSpaceOnUse">
      <stop stop-color="#0B4EA2"/>
      <stop offset="0.7" stop-color="#2379D8"/>
      <stop offset="1" stop-color="#FF9A24"/>
    </linearGradient>
  </defs>
</svg>
