<svg width="512" height="512" viewBox="0 0 512 512" fill="none" xmlns="http://www.w3.org/2000/svg">
  <rect width="512" height="512" rx="128" fill="url(#paint0_linear)"/>
  <rect x="58" y="58" width="396" height="396" rx="92" fill="white" fill-opacity="0.12" stroke="white" stroke-opacity="0.18" stroke-width="4"/>
  <path d="M156 314V191H225.2C260.4 191 283 210.5 283 240.9C283 271.7 260.4 292.4 225.2 292.4H189V314H156ZM189 264.3H221C237.8 264.3 246.8 256.1 246.8 241.2C246.8 226.5 237.8 218.4 221 218.4H189V264.3Z" fill="white"/>
  <path d="M292 314V191H326V283.9H393.4V314H292Z" fill="white"/>
  <path d="M154 369H358" stroke="#FF9A24" stroke-width="18" stroke-linecap="round"/>
  <defs>
    <linearGradient id="paint0_linear" x1="68" y1="38" x2="442" y2="478" gradientUnits="userSpaceOnUse">
      <stop stop-color="#0B4EA2"/>
      <stop offset="0.68" stop-color="#2379D8"/>
      <stop offset="1" stop-color="#FF9A24"/>
    </linearGradient>
  </defs>
</svg>
